<mxfile host="app.diagrams.net" modified="2021-04-27T21:51:57.451Z" agent="5.0 (Macintosh; Intel Mac OS X 10_15_7) AppleWebKit/537.36 (KHTML, like Gecko) Chrome/90.0.4430.85 Safari/537.36" etag="GAt_EjHk48gVS94GrR3I" version="14.6.6" type="github">
  <diagram id="7C1zHKz_L_XaID7tGxn1" name="Page-1">
    <mxGraphModel dx="786" dy="514" grid="0" gridSize="10" guides="1" tooltips="1" connect="1" arrows="1" fold="1" page="1" pageScale="1" pageWidth="827" pageHeight="1169" math="0" shadow="0">
      <root>
        <mxCell id="0" />
        <mxCell id="1" parent="0" />
        <mxCell id="nDdKCuJg6omg3RGkGIXK-4" value="" style="rounded=0;whiteSpace=wrap;html=1;sketch=1;fontColor=#5C5C5C;strokeColor=#006658;fillColor=#21C0A5;" vertex="1" parent="1">
          <mxGeometry x="307" y="208" width="280" height="110" as="geometry" />
        </mxCell>
        <mxCell id="nDdKCuJg6omg3RGkGIXK-5" value="Presentation" style="text;html=1;align=center;verticalAlign=middle;resizable=0;points=[];autosize=1;strokeColor=none;fontColor=#5C5C5C;" vertex="1" parent="1">
          <mxGeometry x="527" y="186" width="77" height="18" as="geometry" />
        </mxCell>
        <mxCell id="nDdKCuJg6omg3RGkGIXK-6" value="" style="rounded=0;whiteSpace=wrap;html=1;sketch=1;strokeColor=#6c8ebf;fillColor=#dae8fc;" vertex="1" parent="1">
          <mxGeometry x="307" y="65" width="280" height="110" as="geometry" />
        </mxCell>
        <mxCell id="nDdKCuJg6omg3RGkGIXK-7" value="Data" style="text;html=1;align=center;verticalAlign=middle;resizable=0;points=[];autosize=1;strokeColor=none;fontColor=#5C5C5C;" vertex="1" parent="1">
          <mxGeometry x="545" y="41" width="40" height="20" as="geometry" />
        </mxCell>
        <mxCell id="nDdKCuJg6omg3RGkGIXK-8" value="" style="rounded=0;whiteSpace=wrap;html=1;sketch=1;strokeColor=#d6b656;fillColor=#fff2cc;" vertex="1" parent="1">
          <mxGeometry x="615" y="208" width="166" height="97" as="geometry" />
        </mxCell>
        <mxCell id="nDdKCuJg6omg3RGkGIXK-9" value="" style="rounded=0;whiteSpace=wrap;html=1;sketch=1;strokeColor=#b85450;fillColor=#f8cecc;" vertex="1" parent="1">
          <mxGeometry x="116" y="208" width="163" height="97" as="geometry" />
        </mxCell>
        <mxCell id="nDdKCuJg6omg3RGkGIXK-10" value="Domain" style="text;html=1;align=center;verticalAlign=middle;resizable=0;points=[];autosize=1;strokeColor=none;fontColor=#5C5C5C;" vertex="1" parent="1">
          <mxGeometry x="684" y="186" width="51" height="18" as="geometry" />
        </mxCell>
        <mxCell id="nDdKCuJg6omg3RGkGIXK-11" value="Utils" style="text;html=1;align=center;verticalAlign=middle;resizable=0;points=[];autosize=1;strokeColor=none;fontColor=#5C5C5C;" vertex="1" parent="1">
          <mxGeometry x="246" y="186" width="33" height="18" as="geometry" />
        </mxCell>
        <mxCell id="nDdKCuJg6omg3RGkGIXK-12" value="" style="rounded=0;whiteSpace=wrap;html=1;sketch=1;" vertex="1" parent="1">
          <mxGeometry x="225" y="112" width="71" height="34" as="geometry" />
        </mxCell>
        <mxCell id="nDdKCuJg6omg3RGkGIXK-13" value="" style="rounded=1;whiteSpace=wrap;html=1;sketch=1;dashed=1;shadow=0;" vertex="1" parent="1">
          <mxGeometry x="139" y="109" width="75" height="37" as="geometry" />
        </mxCell>
        <mxCell id="nDdKCuJg6omg3RGkGIXK-15" value="Express" style="rounded=0;whiteSpace=wrap;html=1;sketch=1;" vertex="1" parent="1">
          <mxGeometry x="411.5" y="399" width="71" height="34" as="geometry" />
        </mxCell>
        <mxCell id="nDdKCuJg6omg3RGkGIXK-18" style="edgeStyle=orthogonalEdgeStyle;rounded=1;sketch=1;orthogonalLoop=1;jettySize=auto;html=1;exitX=0.5;exitY=1;exitDx=0;exitDy=0;entryX=0.5;entryY=0;entryDx=0;entryDy=0;fontColor=#5C5C5C;strokeColor=#006658;fillColor=#21C0A5;" edge="1" parent="1" source="nDdKCuJg6omg3RGkGIXK-17" target="nDdKCuJg6omg3RGkGIXK-15">
          <mxGeometry relative="1" as="geometry" />
        </mxCell>
        <mxCell id="nDdKCuJg6omg3RGkGIXK-20" style="edgeStyle=orthogonalEdgeStyle;rounded=1;sketch=1;orthogonalLoop=1;jettySize=auto;html=1;fontColor=#5C5C5C;strokeColor=#006658;fillColor=#21C0A5;" edge="1" parent="1" source="nDdKCuJg6omg3RGkGIXK-17" target="nDdKCuJg6omg3RGkGIXK-19">
          <mxGeometry relative="1" as="geometry" />
        </mxCell>
        <mxCell id="nDdKCuJg6omg3RGkGIXK-17" value="ExpressRouteAdapter" style="rounded=0;whiteSpace=wrap;html=1;sketch=1;" vertex="1" parent="1">
          <mxGeometry x="384.25" y="345" width="125.5" height="34" as="geometry" />
        </mxCell>
        <mxCell id="nDdKCuJg6omg3RGkGIXK-19" value="Controller" style="rounded=1;whiteSpace=wrap;html=1;sketch=1;dashed=1;shadow=0;" vertex="1" parent="1">
          <mxGeometry x="409.5" y="276" width="75" height="37" as="geometry" />
        </mxCell>
        <mxCell id="nDdKCuJg6omg3RGkGIXK-22" style="edgeStyle=orthogonalEdgeStyle;rounded=1;sketch=1;orthogonalLoop=1;jettySize=auto;html=1;exitX=0.5;exitY=1;exitDx=0;exitDy=0;entryX=0.5;entryY=0;entryDx=0;entryDy=0;fontColor=#5C5C5C;strokeColor=#006658;fillColor=#21C0A5;" edge="1" parent="1" source="nDdKCuJg6omg3RGkGIXK-21" target="nDdKCuJg6omg3RGkGIXK-19">
          <mxGeometry relative="1" as="geometry" />
        </mxCell>
        <mxCell id="nDdKCuJg6omg3RGkGIXK-21" value="SignUp Controller" style="rounded=0;whiteSpace=wrap;html=1;sketch=1;" vertex="1" parent="1">
          <mxGeometry x="411.5" y="217" width="71" height="34" as="geometry" />
        </mxCell>
        <mxCell id="nDdKCuJg6omg3RGkGIXK-23" value="AddAccount" style="rounded=1;whiteSpace=wrap;html=1;sketch=1;dashed=1;shadow=0;strokeColor=#994C00;" vertex="1" parent="1">
          <mxGeometry x="638" y="238" width="75" height="37" as="geometry" />
        </mxCell>
      </root>
    </mxGraphModel>
  </diagram>
</mxfile>
